<?xml version="1.0" standalone="no"?>
<!DOCTYPE svg PUBLIC "-//W3C//DTD SVG 20010904//EN" "http://www.w3.org/TR/2001/REC-SVG-20010904/DTD/svg10.dtd">
<svg version="1.0" xmlns="http://www.w3.org/2000/svg" width="360.000000pt" height="360.000000pt"
    viewBox="0 0 360.000000 360.000000" preserveAspectRatio="xMidYMid meet">

    <g transform="translate(0.000000,360.000000) scale(0.100000,-0.100000)" fill="currentColor" stroke="none">
        <path d="M1632 3102 c-53 -2 -75 -7 -79 -18 -4 -11 -14 -13 -39 -8 -38 7 -64
-8 -64 -36 0 -10 -6 -21 -12 -23 -9 -4 -4 -14 14 -30 43 -40 58 -79 58 -157
l0 -70 -46 -44 c-38 -37 -45 -48 -39 -68 11 -34 23 -46 56 -53 33 -7 31 -22
-3 -23 -13 0 -44 -10 -70 -22 l-48 -21 0 -110 c0 -121 4 -133 61 -195 l37 -42
0 -670 -1 -671 -49 -41 -49 -42 3 -141 3 -142 58 -40 59 -40 256 0 257 0 63
44 62 44 0 132 0 132 -45 42 -45 41 0 681 0 681 40 46 c26 29 50 46 68 48 93
10 149 33 196 83 36 38 45 38 79 3 l27 -28 0 -537 0 -537 -35 0 c-28 0 -35 -4
-35 -20 0 -18 7 -20 60 -20 l60 0 0 576 0 576 -41 38 -40 37 16 58 c52 178
-72 366 -258 391 l-45 6 -18 70 c-10 39 -23 77 -29 85 -7 10 -48 17 -140 23
-205 15 -226 16 -303 12z m-29 -29 c-7 -2 -19 -2 -25 0 -7 3 -2 5 12 5 14 0
19 -2 13 -5z m609 -225 c55 -16 126 -83 154 -143 26 -56 31 -141 11 -187 l-12
-27 -65 54 c-36 29 -65 61 -65 70 0 8 -6 19 -13 23 -9 6 -82 200 -82 219 0 7
35 2 72 -9z m-705 -214 c-7 -8 -37 8 -37 19 0 6 8 19 18 30 17 19 17 19 20
-13 2 -17 1 -34 -1 -36z m578 -24 c3 -5 13 -6 22 -3 11 4 14 3 9 -6 -4 -6 -2
-18 4 -26 10 -12 9 -15 -4 -15 -10 0 -14 -4 -11 -10 9 -15 36 -12 56 6 17 15
23 12 94 -47 41 -35 75 -69 75 -76 0 -30 -114 -94 -173 -96 l-42 -2 -3 98 -3
98 -54 24 c-41 18 -55 29 -55 44 0 18 6 21 39 21 22 0 42 -4 46 -10z m-432
-721 c67 -72 4 -194 -87 -168 -34 10 -65 44 -67 74 -4 68 10 101 54 120 40 18
65 11 100 -26z m309 4 c34 -37 33 -113 -3 -149 -78 -78 -194 20 -145 123 29
61 102 75 148 26z m-331 -353 c47 -26 64 -118 29 -163 -66 -83 -189 -1 -159
107 16 57 77 84 130 56z m310 0 c24 -13 49 -61 49 -95 0 -54 -49 -105 -100
-105 -31 0 -79 48 -86 86 -16 86 64 153 137 114z m-288 -400 c78 -87 -26 -221
-116 -150 -30 23 -47 74 -40 114 3 14 19 38 36 52 39 33 80 27 120 -16z m281
30 c36 -13 60 -68 52 -113 -8 -44 -56 -87 -96 -87 -71 0 -112 92 -70 158 29
46 67 60 114 42z" />
    </g>
</svg>